<svg id="Layer_1" data-name="Layer 1" xmlns="http://www.w3.org/2000/svg" viewBox="0 0 119.06 70.87"><defs><style>.cls-1{fill:#201d1d;}</style></defs><title>UOW-HK_Mono</title><path class="cls-1" d="M12.74,15.7a1.34,1.34,0,0,1,1.17-.25,1,1,0,0,1,.45.26,5.39,5.39,0,0,0-1.17.35c-.45.14-.89.17-.89.05s.17-.17.44-.41m1.95-2.85c0-.08.07-.08.08,0A3.41,3.41,0,0,0,15.3,14a1.42,1.42,0,0,1,.1.9s-.38-.25-.59-.55a1.73,1.73,0,0,1-.12-1.53m.59,5.47c-.34.39-.54.45-.78.86s-.46.36-.46.31a1.91,1.91,0,0,1,.41-1.13,2,2,0,0,1,1-.66,2,2,0,0,1-.21.62m.83-2.51c.46-.37,1-.44,1.26-.15s.07.84-.39,1.21-1,.44-1.26.15-.06-.84.39-1.21M18,13.42a2.18,2.18,0,0,1,.94-.68c.11-.08.07.35-.22.68a2,2,0,0,0-.47.71.89.89,0,0,1-.74.43A3.15,3.15,0,0,1,18,13.42m-.22,4.14a1.2,1.2,0,0,1-1,.33,1.1,1.1,0,0,1-.53-.12s.1-.05.24-.09a2.18,2.18,0,0,0,1.46-1.16A2,2,0,0,1,18,16.2s.09.22.09.32a1.23,1.23,0,0,1-.38,1m-5.88-1.1c.35.17.32.5,1.11.92a2.13,2.13,0,0,0,1.53,0c.39-.16.49.05.16.24a2.05,2.05,0,0,0-.93,1.83c0,.3-.26.57-.05.78s.26,0,.5-.06a2.88,2.88,0,0,0,1.94-.38c.47-.36.49-1,.59-1.2s.21-.24.26-.09a1.79,1.79,0,0,0,1.6.85c.66,0,.78,0,1.09.15s.62-.06.37-.37,0-.49-.29-1.52a2,2,0,0,0-1.21-1.25c-.24-.07-.21-.2,0-.3A2.52,2.52,0,0,0,19.63,13c-.15-.41,0-.67-.16-.78a.37.37,0,0,0-.44.1c-.29.35-1.47.28-1.85,1.4-.13.37-.06.76-.28.81s-.16-.23-.16-.4a1.91,1.91,0,0,0-.79-1.5,8,8,0,0,1-1-.51c-.19-.16-.47-.19-.45.27s-.69,1.45.14,2.53c0,.08.2.18.17.29s-.11.16-.21.12a1.6,1.6,0,0,0-1.24-.28c-.69.15-1.13.8-1.47.9s-.29.34,0,.49"/><path class="cls-1" d="M19.63,16.33a2.77,2.77,0,0,1,.94,2.38c0,.08.31.07.49,0a7.89,7.89,0,0,1,3.11,1.84c.1.09.35-.07.08-.48a8,8,0,0,0-2.39-2.18,2.09,2.09,0,0,1-.74-1.09c-.33-.74-.75-1.16-1.07-1.17,0,0-.11.2-.39.41-.12.08-.22.17,0,.27"/><path class="cls-1" d="M37.53,12.74a2.18,2.18,0,0,1,.94.68,3.2,3.2,0,0,1,.5,1.14.9.9,0,0,1-.75-.43,2,2,0,0,0-.47-.71c-.29-.33-.33-.76-.22-.68m1.54,2.93c.24-.3.81-.23,1.26.14s.63.91.39,1.21-.8.22-1.26-.15-.63-.91-.39-1.2M42,18.36a1.91,1.91,0,0,1,.41,1.13s-.27,0-.45-.31-.45-.47-.79-.86a1.92,1.92,0,0,1-.2-.62,2,2,0,0,1,1,.66M41.14,14a3.34,3.34,0,0,0,.54-1.16c0-.1.06-.11.08,0a1.74,1.74,0,0,1-.13,1.53,1.84,1.84,0,0,1-.58.56,1.41,1.41,0,0,1,.09-.91m-1.45,3.86a1.22,1.22,0,0,1-1-.33,1.28,1.28,0,0,1-.38-1c0-.1.06-.32.09-.32s.05.13.13.31A2.15,2.15,0,0,0,40,17.68c.13,0,.25.06.23.1a1.27,1.27,0,0,1-.53.11m2.84-2.44a1.37,1.37,0,0,1,1.18.25l.43.41c0,.12-.44.09-.89-.05a5.49,5.49,0,0,0-1.16-.35c0-.07.24-.19.44-.26m-4.63.64c.21.1.24.23,0,.3a2.06,2.06,0,0,0-1.21,1.25c-.27,1,0,1.19-.28,1.52s.05.51.36.37.43-.12,1.09-.14a1.83,1.83,0,0,0,1.6-.86c.06-.15.15-.18.27.09s.11.84.58,1.2a2.89,2.89,0,0,0,1.94.38c.25,0,.4.16.5.06s0-.48,0-.78a2,2,0,0,0-.93-1.82c-.33-.2-.23-.41.16-.25a2.13,2.13,0,0,0,1.53,0c.8-.42.77-.75,1.11-.93s.21-.43,0-.48-.78-.75-1.46-.9a1.62,1.62,0,0,0-1.25.28c-.1,0-.2-.09-.2-.12s.12-.21.17-.29c.83-1.08.12-2,.13-2.53s-.26-.43-.45-.27a8,8,0,0,1-1,.51,1.91,1.91,0,0,0-.79,1.5c0,.17,0,.44-.16.4s-.14-.44-.27-.81c-.38-1.12-1.57-1.06-1.86-1.39a.36.36,0,0,0-.44-.11c-.18.11,0,.37-.16.78a2.53,2.53,0,0,0,1.09,3.07"/><path class="cls-1" d="M32.19,20.09c-.26.41,0,.57.08.48a7.83,7.83,0,0,1,3.11-1.84c.18.05.5.06.5,0a2.72,2.72,0,0,1,.94-2.38c.18-.1.08-.19,0-.27-.29-.22-.36-.41-.4-.4-.32,0-.73.42-1.07,1.16a2,2,0,0,1-.74,1.09,8.14,8.14,0,0,0-2.39,2.18"/><path class="cls-1" d="M29.22,12.14a1.69,1.69,0,0,1,.8-.7,1.93,1.93,0,0,1,.74-.11c.12,0,.09,0,0,.07a4.61,4.61,0,0,0-1.14,1.53c-.2.27-.6.33-.61.26a2.25,2.25,0,0,1,.22-1m-.91,5.22h-.1c-1.19,0-1.62-1.1-1.39-1.19,0,0,.29.52,1.35.57h.12a1.74,1.74,0,0,0,1.41-.57c.23.09-.2,1.18-1.39,1.19m-2.62-6c-.09-.06-.12-.05,0-.07a1.61,1.61,0,0,1,1.53.81,2.3,2.3,0,0,1,.24,1c0,.07-.49-.12-.68-.39a4.4,4.4,0,0,0-1.08-1.4m2.53,2.92h0a.9.9,0,0,1,1,.78.91.91,0,0,1-1,.78h0a.9.9,0,0,1-1-.78.9.9,0,0,1,1-.78m2.82.23a1.32,1.32,0,0,1,1.22-.11c.21.1.53.3.75.4a3.25,3.25,0,0,0,.54.16s0,.06-.06.07a1.84,1.84,0,0,1-1.59,0c-.34-.12-.64-.38-.83-.4s-.1-.07,0-.11m-5.69.12c-.2,0-.51.27-.84.4a2.19,2.19,0,0,1-1.59,0c-.05,0-.07-.07,0-.08a3.92,3.92,0,0,0,.54-.16c.21-.1.53-.3.74-.4a1.31,1.31,0,0,1,1.22.11c.07,0,0,.11,0,.12m2.92-1.39-.05,0h0l0,0c-.06,0,0-.21-.09-.48a2.25,2.25,0,0,0-2.34-2.07c-.69,0-.74-.31-1-.21s0,.3-.08.72a2.44,2.44,0,0,0,.82,2.31c.32.27.27.57.13.53l-.52-.22a2.13,2.13,0,0,0-2,.57,1.48,1.48,0,0,1-.54.34c-.37.09-.36.44,0,.56s.4.46.89,1a2.48,2.48,0,0,0,2.5.63c.36-.09.42,0,.43.08.08.23-.6,1,.36,2.1.49.55,1,.77,1.19,1.1s.11.29.28.32h.08c.18,0,.19-.13.29-.32s.69-.55,1.18-1.1c1-1.1.28-1.87.36-2.1,0,0,.08-.17.43-.08a2.48,2.48,0,0,0,2.5-.63c.49-.58.48-.9.89-1s.37-.47,0-.56a1.48,1.48,0,0,1-.54-.34,2.13,2.13,0,0,0-2-.57c-.21.08-.41.18-.51.22s-.2-.26.12-.53a2.45,2.45,0,0,0,.83-2.31c0-.42.14-.63-.08-.72s-.3.17-1,.21a2.23,2.23,0,0,0-2.34,2.07c-.05.27,0,.43-.09.48"/><path class="cls-1" d="M46.93,37.78a14.89,14.89,0,0,1-4.55,11.27c-3.2,3.38-10.3,7.26-14.2,9-7.12-3.16-12.48-7.18-14.2-9A14.89,14.89,0,0,1,9.43,37.78V11c7.72-3.26,17.77-3.1,18.68-3.08h.14c.91,0,11-.18,18.68,3.08Zm-18.75-31c-.83,0-11.36-.27-19.54,3.32l-.33.14V37.78a15.93,15.93,0,0,0,4.85,12C16.55,53.4,24,57.46,28,59.17l.23.1.22-.1c3.92-1.72,11.41-5.78,14.78-9.35a15.91,15.91,0,0,0,4.86-12V10.23l-.34-.14C39.54,6.5,29,6.74,28.18,6.77"/><path class="cls-1" d="M48.81,37.78a16.58,16.58,0,0,1-5.07,12.56c-3.45,3.65-11.05,7.78-15,9.53l-.53.23-.53-.23c-4-1.74-11.57-5.87-15-9.53A16.58,16.58,0,0,1,7.55,37.78v-28l.79-.35C15.33,6.33,23.86,6,27.21,6h1.94C32.49,6,41,6.33,48,9.39l.79.35ZM49,9.24l-.79-.34C41.16,5.79,32.53,5.46,29.15,5.46H27.21c-3.38,0-12,.33-19.09,3.44l-.79.34L7,9.38v28.4a17.13,17.13,0,0,0,5.21,12.94c3.52,3.71,11.2,7.89,15.22,9.64l.53.23.22.1.21-.1.53-.23c4-1.76,11.7-5.94,15.21-9.64a17.13,17.13,0,0,0,5.21-12.94V9.38Z"/><path class="cls-1" d="M30.81,37h.1a4.77,4.77,0,0,1,.76-.06,7.75,7.75,0,0,1,2.2.36,8.31,8.31,0,0,0,1.69.28v0A11.39,11.39,0,0,1,34,37.07a8,8,0,0,0-2-.54h-.31a4.84,4.84,0,0,0-.75.06,2.83,2.83,0,0,0-.44.11s.07.32.35.32"/><path class="cls-1" d="M30.81,35.47l.1,0a4.77,4.77,0,0,1,.76-.06,8.12,8.12,0,0,1,2.2.36,8.58,8.58,0,0,0,1.69.29v0A11.48,11.48,0,0,1,34,35.52,7.58,7.58,0,0,0,32,35h-.31a4.73,4.73,0,0,0-.75.05l-.44.12s.07.32.35.32"/><path class="cls-1" d="M30.81,33.92h.1a4.77,4.77,0,0,1,.76-.06,7.75,7.75,0,0,1,2.2.36,8.87,8.87,0,0,0,1.69.28v0A11.48,11.48,0,0,1,34,34a8,8,0,0,0-2-.54h-.31a4.84,4.84,0,0,0-.75.06,2.83,2.83,0,0,0-.44.12s.07.31.35.31"/><path class="cls-1" d="M30.81,38.55h.1a4.77,4.77,0,0,1,.76-.06,7.75,7.75,0,0,1,2.2.36,7.83,7.83,0,0,0,1.69.28v0A11.48,11.48,0,0,1,34,38.61a8,8,0,0,0-2-.54h-.31a4.81,4.81,0,0,0-.75,0l-.44.12s.07.31.35.31"/><path class="cls-1" d="M19.51,28.37a3,3,0,0,0,.6.06h.21c1.23-.06,1.6-.48,1.59-.48s0,0,0,0h0a4.84,4.84,0,0,1-.63.09,6.58,6.58,0,0,1-1,.07,3.57,3.57,0,0,1-1.2-.17H19v0a.55.55,0,0,0,.48.42"/><path class="cls-1" d="M33.87,40.39a9,9,0,0,0,1.68.28v0A10.22,10.22,0,0,1,34,40.15a7.58,7.58,0,0,0-2-.53h-.31a4.84,4.84,0,0,0-.75.06,2.83,2.83,0,0,0-.44.11s.07.32.35.32h.1a4.77,4.77,0,0,1,.76-.06,7.75,7.75,0,0,1,2.2.36"/><path class="cls-1" d="M19.51,29.93a2.91,2.91,0,0,0,.6.07h.21c1.23-.06,1.6-.47,1.59-.48h0a5.37,5.37,0,0,1-.63.1,8.24,8.24,0,0,1-1,.06,3.32,3.32,0,0,1-1.2-.17H19v0a.55.55,0,0,0,.48.42"/><path class="cls-1" d="M13.51,35.2a.44.44,0,0,1,.08.25.42.42,0,0,1-.84,0,.48.48,0,0,0-.06.24.58.58,0,1,0,.82-.51"/><path class="cls-1" d="M13.51,40.52a.41.41,0,0,1,.08.25.42.42,0,0,1-.84,0,.48.48,0,0,0-.06.24.58.58,0,0,0,1.16,0,.57.57,0,0,0-.34-.51"/><path class="cls-1" d="M30.81,32.38h.1a4.77,4.77,0,0,1,.76-.06,8.07,8.07,0,0,1,2.2.35,7.91,7.91,0,0,0,1.69.29v0A11.48,11.48,0,0,1,34,32.43a8.39,8.39,0,0,0-2-.53h-.31a4.84,4.84,0,0,0-.75.06,2.83,2.83,0,0,0-.44.11s.07.32.35.32"/><path class="cls-1" d="M13.51,29.88a.44.44,0,0,1,.08.25.42.42,0,0,1-.84,0,.5.5,0,0,0-.06.24.58.58,0,1,0,.82-.51"/><path class="cls-1" d="M30.81,27.74h.1a4.77,4.77,0,0,1,.76-.06,7.75,7.75,0,0,1,2.2.36,7.36,7.36,0,0,0,1.69.28v0A11.48,11.48,0,0,1,34,27.8a7.58,7.58,0,0,0-2-.53l-.31,0a5.47,5.47,0,0,0-.69.05H30.9l-.44.12s.07.31.35.31"/><path class="cls-1" d="M30.81,30.83h.1a4.77,4.77,0,0,1,.76-.06,7.75,7.75,0,0,1,2.2.36,7.49,7.49,0,0,0,1.69.28v0A11.48,11.48,0,0,1,34,30.89a8,8,0,0,0-2-.54h-.31a5.47,5.47,0,0,0-.69.05H30.9l-.44.12s.07.31.35.31"/><path class="cls-1" d="M30.81,29.29h.1a4.68,4.68,0,0,1,.76-.06,8.07,8.07,0,0,1,2.2.35,8.46,8.46,0,0,0,1.69.29v0A11.48,11.48,0,0,1,34,29.34a8.39,8.39,0,0,0-2-.53h-.31a5.6,5.6,0,0,0-.69.05H30.9a2.83,2.83,0,0,0-.44.11s.07.32.35.32"/><path class="cls-1" d="M20.15,41h.17c1.23-.06,1.6-.48,1.59-.48h0a5.37,5.37,0,0,1-.63.1,8.24,8.24,0,0,1-1,.06,3.32,3.32,0,0,1-1.2-.17H19v0a.55.55,0,0,0,.48.42,2.91,2.91,0,0,0,.6.07Z"/><path class="cls-1" d="M19.51,36.19a3,3,0,0,0,.6.06h.21c1.23-.06,1.6-.48,1.59-.48h0a4.84,4.84,0,0,1-.63.09,6.58,6.58,0,0,1-1,.07,3.57,3.57,0,0,1-1.2-.17H19v0a.55.55,0,0,0,.48.42"/><path class="cls-1" d="M19.51,39.32a3,3,0,0,0,.6.06h.21c1.23-.06,1.6-.48,1.59-.49h0a4.84,4.84,0,0,1-.63.09,6.58,6.58,0,0,1-1,.07,3.57,3.57,0,0,1-1.2-.17H19a.54.54,0,0,0,.48.43"/><path class="cls-1" d="M19.51,31.5a3,3,0,0,0,.6.06h.21c1.23,0,1.6-.47,1.59-.48h0a5.37,5.37,0,0,1-.63.1,8.35,8.35,0,0,1-1,.07,3.57,3.57,0,0,1-1.2-.17l-.05,0h0a.55.55,0,0,0,.48.43"/><path class="cls-1" d="M19.51,37.75a2.91,2.91,0,0,0,.6.07h.21c1.23,0,1.6-.47,1.59-.48a0,0,0,0,0,0,0h0a5.37,5.37,0,0,1-.63.1,8.24,8.24,0,0,1-1,.06,3.67,3.67,0,0,1-1.2-.16l-.05,0h0v0a.55.55,0,0,0,.48.42"/><path class="cls-1" d="M19.51,34.62a2.35,2.35,0,0,0,.6.07h.21c1.23,0,1.6-.47,1.59-.48h0a5.37,5.37,0,0,1-.63.1,8.35,8.35,0,0,1-1,.07,3.57,3.57,0,0,1-1.2-.17l-.05,0h0a.54.54,0,0,0,.48.42"/><path class="cls-1" d="M19.51,33.06a2.41,2.41,0,0,0,.6.06h.21c1.23-.06,1.6-.48,1.59-.48h0a5.37,5.37,0,0,1-.63.1,8.24,8.24,0,0,1-1,.06,3.32,3.32,0,0,1-1.2-.17H19v0a.55.55,0,0,0,.48.42"/><path class="cls-1" d="M44.1,32H42.78v-.82h0l.73-.63H41.84v-.74h.94V29H44.1Zm0,5.35H42.78v-.82h0l.73-.63H41.84v-.74h.94v-.86H44.1Zm0,5.35H42.78v-.82h0l.73-.63H41.84v-.74h.94v-.85H44.1Zm-2.72,2.38H31.31a1.38,1.38,0,0,0-.93.29,3.15,3.15,0,0,1-2,.78A3.24,3.24,0,0,1,26,45.37a1.21,1.21,0,0,0-.75-.25H15.35V27.93H16.9l-.06.07V43.17l-.44.55V28.53l-.46.55,0,15.33h9.63a1.22,1.22,0,0,1,.87.39,3.07,3.07,0,0,0,3.34.09l.05,0a1.7,1.7,0,0,1,.86-.46h10V29.17l-.49-.62V43.72l-.44-.55V28l0,0h1.59Zm-24-17.77.44-.56V42l-.44.55Zm1-.78c1.84.92,4.29-.32,6.45-.52a3.46,3.46,0,0,1,2.94.93v1a3.5,3.5,0,0,0-1-.46,2.92,2.92,0,0,0-.82-.14l-.25,0s0,0,0,0a2.15,2.15,0,0,1,.45.11h0a3.48,3.48,0,0,1,1.55,1.06v.93a3.67,3.67,0,0,0-1-.45,3.47,3.47,0,0,0-.8-.12l-.27,0s0,0,0,0h0a2.41,2.41,0,0,1,.43.1h0a3.52,3.52,0,0,1,1.55,1V31a3.83,3.83,0,0,0-1-.43,3.15,3.15,0,0,0-.77-.12l-.28,0s0,0,0,0a2,2,0,0,1,.42.09l.07,0a3.65,3.65,0,0,1,1.52,1v.92a4,4,0,0,0-1-.41,2.23,2.23,0,0,0-1.06-.08s0,0,0,0a2.24,2.24,0,0,1,.43.08l.1,0a3.37,3.37,0,0,1,1.48,1v.93A3.28,3.28,0,0,0,26,33.6a1.83,1.83,0,0,0-.35,0h0a2.5,2.5,0,0,1,.4.08h0a4.56,4.56,0,0,1,1.55,1v.91a3.39,3.39,0,0,0-1-.39,3.83,3.83,0,0,0-.69-.08,2.17,2.17,0,0,0-.38,0s0,0,0,0a1.7,1.7,0,0,1,.44.08h0a3.36,3.36,0,0,1,1.55,1v.92a3.76,3.76,0,0,0-1-.37,3.49,3.49,0,0,0-.66-.08,2.35,2.35,0,0,0-.4,0s0,0,0,0a2.7,2.7,0,0,1,.44.07h0a3.37,3.37,0,0,1,1.56,1v.89a3.2,3.2,0,0,0-1-.36,3.44,3.44,0,0,0-.63-.07,2.52,2.52,0,0,0-.43,0s0,0,0,0a1.53,1.53,0,0,1,.44.06h0a4.09,4.09,0,0,1,1.55.89v.95a3.46,3.46,0,0,0-1-.36,4.51,4.51,0,0,0-.6-.06,2,2,0,0,0-.46,0s0,0,0,0a1.57,1.57,0,0,1,.42,0h0a3.14,3.14,0,0,1,1.56.92V42c-.69-.48-2-1.26-4.94-.34a6.35,6.35,0,0,1-4.45.09ZM28.81,27A3.86,3.86,0,0,1,31.9,26c2.16.2,4.61,1.44,6.45.52V41.73a6.34,6.34,0,0,1-4.45-.09c-3.14-1-4.46,0-5.09.46Zm10.08-.21.44.56V42.55L38.89,42ZM14.85,31H14a6,6,0,0,1,0,.6.83.83,0,0,1-.83.66.67.67,0,0,1-.52-.23c-.26-.31,0-.82.07-1a1.32,1.32,0,0,1-.42.07c-.24,0-.65-.1-.69-.75s.45-.77.69-.77a1.67,1.67,0,0,1,.42.07c-.09-.15-.33-.66-.07-1a.68.68,0,0,1,.52-.24.83.83,0,0,1,.83.66c0,.14,0,.46,0,.62h.82Zm0,5.32H14c0,.17,0,.45,0,.6a.83.83,0,0,1-.83.66.68.68,0,0,1-.52-.24c-.26-.3,0-.81.07-1a1.32,1.32,0,0,1-.42.07c-.24,0-.65-.1-.69-.75s.45-.77.69-.77a1.67,1.67,0,0,1,.42.07c-.09-.15-.33-.66-.07-1a.67.67,0,0,1,.52-.23.83.83,0,0,1,.83.66c0,.13,0,.45,0,.62h.82Zm0,5.32H14c0,.17,0,.45,0,.6a.83.83,0,0,1-.83.66.68.68,0,0,1-.52-.24c-.26-.3,0-.81.07-1a1.35,1.35,0,0,1-.42.08c-.24,0-.65-.1-.69-.76s.39-.76.69-.76a1.32,1.32,0,0,1,.42.07c-.09-.15-.33-.67-.07-1a.67.67,0,0,1,.52-.23.83.83,0,0,1,.83.66c0,.14,0,.46,0,.61h.82ZM43.38,21.58a13.24,13.24,0,0,0-4,.73,13.42,13.42,0,0,1-3.51.68,9.66,9.66,0,0,1-3-.53h0a15.84,15.84,0,0,0-4.64-.78h-.11a14.92,14.92,0,0,0-4,.66,15.78,15.78,0,0,1-3.71.66,11.64,11.64,0,0,1-3.36-.56h0a16.1,16.1,0,0,0-4.29-.71h0a13.14,13.14,0,0,0-2.57.25V37.78a14.2,14.2,0,0,0,4.34,10.75c1.64,1.73,6.78,5.59,13.65,8.69,3.82-1.75,10.63-5.5,13.65-8.69a14.2,14.2,0,0,0,4.34-10.75V21.92a11.83,11.83,0,0,0-2.76-.34Z"/><path class="cls-1" d="M60.22,21.66V11.8c0-.76-.48-1-2.53-1.05V10h7.2v.78c-2.18.07-2.35.24-2.35,1.05v9.47c0,2.86,1.93,4.1,4.55,4.1a4.23,4.23,0,0,0,3.1-1.22,4.08,4.08,0,0,0,1.24-3.46V13.8c0-2.22-.51-2.78-2.83-3.12V10h6.2v.71c-2.17.38-2.39.9-2.39,3.12v7.62c0,2.56-2.2,5-6.08,5s-6.11-1.93-6.11-4.76"/><path class="cls-1" d="M75.39,18.05c0-5.15,3.42-8.47,7.67-8.47S90.73,12.8,90.73,18s-3.42,8.47-7.67,8.47-7.67-3.19-7.67-8.37M88.09,18c0-5.22-2.17-7.54-5.13-7.54S78,12.78,78,18s2.18,7.54,5.13,7.54,4.93-2.29,4.93-7.54"/><path class="cls-1" d="M101.79,12.7a2.48,2.48,0,0,0-2.44-2V10H106v.7c-2,.13-2.24.66-2,1.54l3.29,10.6h.1l3-9c.81-2.42.57-2.78-1.73-3.13V10h5.91v.7c-1.66.35-2.37,1.08-3.05,3.11l-4.2,12.64h-1.1L102.7,15.54,98.55,26.42h-1.1l-4.28-14c-.34-1.1-.75-1.37-2.56-1.74V10h6.72v.7c-1.88.13-2,.62-1.76,1.54l3.08,10.62h.07l3.44-9Z"/><path class="cls-1" d="M60.17,34.5a4,4,0,0,1,4-4.14A3.74,3.74,0,0,1,66,30.9l.33-.51h.36v2.54h-.35c-.49-1.33-1.22-2.15-2.36-2.15-1.35,0-2.57,1.28-2.57,3.67s1.46,3.39,2.78,3.39a2.66,2.66,0,0,0,2.5-1.8l.39.19a3.45,3.45,0,0,1-3.2,2.22,3.66,3.66,0,0,1-3.74-4"/><path class="cls-1" d="M63.91,38.48a3.67,3.67,0,0,1-3.77-4,4.26,4.26,0,0,1,1.15-3,3.9,3.9,0,0,1,2.83-1.2,3.74,3.74,0,0,1,1.9.53l.32-.49h.42V33h-.41v0c-.53-1.43-1.29-2.12-2.33-2.12-1.74,0-2.54,1.88-2.54,3.63,0,2.2,1.38,3.35,2.75,3.35A2.62,2.62,0,0,0,66.69,36l0,0,.45.21,0,0a3.51,3.51,0,0,1-3.23,2.23m.21-8.09a3.82,3.82,0,0,0-2.78,1.18,4.19,4.19,0,0,0-1.13,2.93,3.61,3.61,0,0,0,3.7,3.91,3.44,3.44,0,0,0,3.15-2.16l-.32-.16a2.66,2.66,0,0,1-2.52,1.78c-1.4,0-2.82-1.17-2.82-3.42a4.51,4.51,0,0,1,.79-2.75,2.26,2.26,0,0,1,1.82-1c1.06,0,1.85.71,2.39,2.15h.29V30.43h-.31l-.33.52,0,0a3.7,3.7,0,0,0-1.9-.54"/><path class="cls-1" d="M67.94,34.43a3.75,3.75,0,0,1,3.68-4.07c2.1,0,3.68,1.54,3.68,4a3.75,3.75,0,0,1-3.68,4.07c-2.1,0-3.68-1.54-3.68-4m6.09,0c0-2.51-1-3.62-2.46-3.62S69.2,31.89,69.2,34.4s1,3.63,2.46,3.63S74,36.92,74,34.4"/><path class="cls-1" d="M71.62,38.48c-2.23,0-3.72-1.63-3.72-4a3.8,3.8,0,0,1,3.72-4.11c2.19,0,3.71,1.67,3.71,4.06a3.79,3.79,0,0,1-3.71,4.1m0-8.09a3.74,3.74,0,0,0-3.65,4c0,2.38,1.47,4,3.65,4a3.72,3.72,0,0,0,3.64-4,3.66,3.66,0,0,0-3.64-4m0,7.67c-1.58,0-2.49-1.33-2.49-3.66s.85-3.66,2.4-3.66,2.5,1.34,2.5,3.66-.86,3.66-2.41,3.66m-.09-7.25c-1.5,0-2.33,1.28-2.33,3.59S70.12,38,71.66,38,74,36.71,74,34.4s-.89-3.59-2.43-3.59"/><path class="cls-1" d="M75.91,37.88c1,0,1.22-.14,1.22-.5v-6c0-.36-.23-.46-1.22-.5v-.38h3.55v.38c-1,0-1.21.14-1.21.5v6.39h1.27c1.55,0,1.92-.55,2.36-2.14l.37,0-.09,2.57H75.91Z"/><path class="cls-1" d="M82.19,38.29H75.88v-.44h0c1,0,1.19-.15,1.19-.47v-6c0-.31-.17-.43-1.19-.46h0v-.45H79.5V31h0c-1,0-1.19.15-1.19.46v6.36h1.24c1.5,0,1.88-.5,2.33-2.12v0l.42,0v0ZM76,38.22h6.18l.08-2.5-.3,0c-.46,1.64-.86,2.15-2.39,2.15H78.21V31.42c0-.38.25-.5,1.22-.53v-.31H76v.31c1,0,1.22.15,1.22.53v6c0,.39-.25.5-1.22.54Z"/><path class="cls-1" d="M83.1,37.88c1,0,1.22-.14,1.22-.5v-6c0-.36-.23-.46-1.22-.5v-.38h3.56v.38c-1,0-1.22.14-1.22.5v6.39h1.28c1.54,0,1.91-.55,2.35-2.14l.36,0-.08,2.57H83.1Z"/><path class="cls-1" d="M89.39,38.29H83.07v-.44h0c1,0,1.19-.15,1.19-.47v-6c0-.31-.17-.43-1.19-.46h0v-.45h3.62V31h0c-1,0-1.19.15-1.19.46v6.36h1.25c1.49,0,1.86-.5,2.32-2.12v0l.42,0v0Zm-6.25-.07h6.18l.08-2.5-.3,0c-.46,1.64-.86,2.15-2.38,2.15H85.4V31.42c0-.38.25-.5,1.22-.53v-.31H83.14v.31c1,0,1.22.15,1.22.53v6c0,.39-.25.5-1.22.54Z"/><path class="cls-1" d="M90.29,37.88c1,0,1.22-.14,1.22-.5v-6c0-.36-.23-.46-1.22-.5v-.38h6.26l0,2.16h-.37c-.4-1.31-.61-1.73-1.93-1.73H92.63V34h.69c.87,0,1.19-.08,1.49-1.3h.31v3h-.31c-.3-1.21-.62-1.3-1.49-1.3h-.69v3.33h1.66c1.55,0,1.92-.61,2.33-2l.37,0-.06,2.4H90.29Z"/><path class="cls-1" d="M97,38.29h-6.7v-.44h0c1,0,1.19-.15,1.19-.47v-6c0-.31-.17-.43-1.19-.46h0v-.45h6.33v0l0,2.2H96.2v0c-.4-1.3-.6-1.72-1.9-1.72H92.66v3h.66c.82,0,1.16,0,1.45-1.27v0h.38v3.12h-.38v0c-.28-1.18-.58-1.28-1.45-1.28h-.66v3.26h1.63c1.55,0,1.9-.62,2.3-2v0H97Zm-6.63-.07h6.56L97,35.89h-.3c-.4,1.34-.78,2-2.36,2h-1.7v-3.4h.73c.88,0,1.22.11,1.52,1.3h.25v-3h-.25c-.3,1.2-.64,1.31-1.52,1.31h-.73V30.94h1.7c1.34,0,1.56.45,2,1.74h.3l0-2.09H90.33v.31c1,0,1.22.15,1.22.53v6c0,.39-.25.5-1.22.54Z"/><path class="cls-1" d="M97.91,34.42a4,4,0,0,1,4-4.06,5.22,5.22,0,0,1,1.87.37l.32-.37h.36v2.26h-.35a2.42,2.42,0,0,0-2.32-1.84c-1.29,0-2.61,1.17-2.61,3.62s1.43,3.62,2.7,3.62a2.64,2.64,0,0,0,1.58-.39V35.45c0-.37-.24-.47-1.23-.51v-.37h3.11v.37c-.71,0-.77.12-.77.51v2.4a6.42,6.42,0,0,1-2.59.6,3.83,3.83,0,0,1-4.07-4"/><path class="cls-1" d="M102,38.48a3.87,3.87,0,0,1-4.11-4,4,4,0,0,1,4-4.11,5.06,5.06,0,0,1,1.86.37l.31-.37h.42v2.34h-.41v0a2.4,2.4,0,0,0-2.29-1.81c-1.24,0-2.58,1.12-2.58,3.58S100.56,38,101.88,38a2.57,2.57,0,0,0,1.54-.38V35.45c0-.32-.17-.44-1.19-.47h0v-.45h3.18V35h0c-.71,0-.74.11-.74.47v2.42h0a6.29,6.29,0,0,1-2.6.6m-.07-8.09a3.92,3.92,0,0,0-4,4,3.8,3.8,0,0,0,4,4,6.4,6.4,0,0,0,2.55-.58V35.45c0-.43.11-.51.78-.54V34.6h-3v.31c1,0,1.22.15,1.22.54v2.19h0a2.6,2.6,0,0,1-1.6.41c-1.36,0-2.74-1.26-2.74-3.66s1.37-3.66,2.65-3.66a2.44,2.44,0,0,1,2.34,1.84h.3V30.39h-.31l-.33.39h0a5,5,0,0,0-1.86-.38"/><path class="cls-1" d="M105.86,37.88c1,0,1.22-.14,1.22-.5v-6c0-.36-.24-.46-1.22-.5v-.38h6.26l0,2.16h-.36c-.41-1.31-.62-1.73-1.93-1.73h-1.67V34h.69c.87,0,1.2-.08,1.49-1.3h.32v3h-.32c-.29-1.21-.62-1.3-1.49-1.3h-.69v3.33h1.67c1.55,0,1.92-.61,2.33-2l.36,0-.06,2.4h-6.63Z"/><path class="cls-1" d="M112.53,38.29h-6.7v-.44h0c1,0,1.18-.15,1.18-.47v-6c0-.31-.17-.43-1.18-.46h0v-.45h6.32v0l0,2.2h-.43v0c-.41-1.3-.6-1.72-1.91-1.72h-1.62v3h.65c.82,0,1.16,0,1.46-1.27v0h.38v3.12h-.38v0c-.29-1.18-.59-1.28-1.46-1.28h-.65v3.26h1.62c1.55,0,1.91-.62,2.31-2v0h.43Zm-6.63-.07h6.56l.06-2.33h-.3c-.41,1.34-.78,2-2.37,2h-1.69v-3.4h.72c.89,0,1.23.11,1.52,1.3h.25v-3h-.25c-.29,1.2-.63,1.31-1.52,1.31h-.72V30.94h1.69c1.35,0,1.56.45,2,1.74h.3l0-2.09H105.9v.31c1,0,1.21.15,1.21.53v6c0,.39-.25.5-1.21.54Z"/><path class="cls-1" d="M59.91,48.72c.79,0,1-.11,1-.4V43.55c0-.29-.19-.37-1-.4v-.3h2.77v.3c-.83,0-.9.09-.9.4v2.1h2.9v-2.1c0-.31-.07-.37-.9-.4v-.3h2.76v.3c-.78,0-1,.11-1,.4v4.77c0,.29.19.37,1,.4V49H63.78v-.3c.83,0,.9-.09.9-.4V46h-2.9v2.33c0,.31.07.37.9.4V49H59.91Z"/><path class="cls-1" d="M66.58,49.06H63.74v-.37h0c.84,0,.87-.1.87-.37V46H61.81v2.29c0,.27,0,.34.87.37h0v.37H59.88v-.37h0c.81,0,.94-.12.94-.37V43.55c0-.25-.13-.34-.94-.37h0v-.37h2.84v.37h0c-.83,0-.87.1-.87.37v2.07h2.83V43.55c0-.27,0-.34-.87-.37h0v-.37h2.84v.37h0c-.8,0-.94.12-.94.37v4.77c0,.25.14.34.94.37h0ZM63.81,49h2.7v-.24c-.72,0-1-.1-1-.43V43.55c0-.33.26-.41,1-.43v-.24h-2.7v.24c.78,0,.9.08.9.43v2.14h-3V43.55c0-.35.12-.41.9-.43v-.24H60v.24c.72,0,1,.1,1,.43v4.77c0,.33-.25.4-1,.43V49h2.69v-.24c-.78,0-.9-.09-.9-.43V46h3v2.37c0,.34-.12.4-.9.43Z"/><path class="cls-1" d="M66.93,46a3,3,0,0,1,2.95-3.25,2.94,2.94,0,0,1,2.94,3.22,3,3,0,0,1-2.94,3.25A2.94,2.94,0,0,1,66.93,46m4.88,0c0-2-.84-2.89-2-2.89s-1.9.89-1.9,2.89.84,2.9,2,2.9,1.89-.88,1.89-2.9"/><path class="cls-1" d="M69.88,49.21a3,3,0,0,1-3-3.26,3,3,0,0,1,3-3.29,3,3,0,0,1,3,3.26,3.05,3.05,0,0,1-3,3.29m0-6.47A3,3,0,0,0,67,46a2.89,2.89,0,0,0,2.91,3.19,3,3,0,0,0,2.91-3.22,2.92,2.92,0,0,0-2.91-3.18m0,6.13c-1.28,0-2-1.07-2-2.93S68.59,43,69.84,43s2,1.07,2,2.94-.68,2.93-1.92,2.93m-.08-5.8c-1.2,0-1.86,1-1.86,2.87s.7,2.86,1.94,2.86,1.85-1,1.85-2.86-.7-2.87-1.93-2.87"/><path class="cls-1" d="M74.6,43.83h0v3.71c0,.86.11,1.08,1,1.21V49H73.24v-.27c.83-.14,1-.35,1-1.21V43.79c0-.35-.22-.62-1-.64v-.3H75l3.49,4.79h0V44.32c0-.85-.2-1.07-1.09-1.2v-.27h2.38v.27c-.83.15-.92.35-.92,1.2v4.85H78.5Z"/><path class="cls-1" d="M78.9,49.21h-.42v0l-3.84-5.27v3.62c0,.83.09,1,1,1.17h0v.34H73.2v-.34h0c.8-.13,1-.32,1-1.17V43.79c0-.39-.31-.59-.94-.61h0v-.37H75v0l3.43,4.71V44.32c0-.84-.18-1-1-1.16h0v-.34h2.45v.34h0c-.82.14-.89.32-.89,1.16Zm-.38-.07h.31V44.32c0-.85.08-1.07.92-1.23v-.2H77.44v.2c.88.13,1.08.37,1.08,1.23v3.36h-.06v0L75,42.89h-1.7v.22c.66,0,1,.25,1,.68v3.75c0,.88-.17,1.1-1,1.24V49h2.3v-.2c-.89-.14-1-.38-1-1.24V43.79h.07Z"/><path class="cls-1" d="M80,46a3.16,3.16,0,0,1,3.2-3.25,4.13,4.13,0,0,1,1.5.3l.25-.3h.29v1.81H85A2,2,0,0,0,83.12,43c-1,0-2.09.93-2.09,2.89s1.15,2.9,2.17,2.9a2,2,0,0,0,1.25-.32V46.77c0-.29-.18-.38-1-.4v-.3H86v.3c-.57,0-.62.09-.62.4v1.92a5.06,5.06,0,0,1-2.07.48A3.06,3.06,0,0,1,80,46"/><path class="cls-1" d="M83.27,49.2A3.1,3.1,0,0,1,80,46a3.2,3.2,0,0,1,3.24-3.29,4.14,4.14,0,0,1,1.49.3l.24-.3h.35v1.88H85v0a1.92,1.92,0,0,0-1.83-1.45c-1,0-2.05.9-2.05,2.86s1.07,2.87,2.13,2.87a2,2,0,0,0,1.22-.3V46.77c0-.25-.14-.34-.94-.37h0V46H86v.37h0c-.57,0-.59.09-.59.37v1.94h0a5.18,5.18,0,0,1-2.09.48m0-6.46A3.12,3.12,0,0,0,80.05,46a3,3,0,0,0,3.22,3.18,5.09,5.09,0,0,0,2-.46v-1.9c0-.34.09-.41.62-.44V46.1H83.51v.23c.72,0,1,.1,1,.44v1.76h0a2.06,2.06,0,0,1-1.28.33c-1.1,0-2.2-1-2.2-2.94S82.1,43,83.12,43A2,2,0,0,1,85,44.47h.22V42.74H85l-.26.3h0a4,4,0,0,0-1.48-.29"/><path class="cls-1" d="M91.53,44c.53-.53.55-.78-.27-.88v-.27h2.38v.27c-.74.11-1,.31-1.71,1l-1.25,1.22,2,2.7a1.46,1.46,0,0,0,1.19.7V49H91.17v-.27c.78-.1.8-.25.54-.62L90.1,45.91l-.65.63v1.78c0,.31.06.37.8.4V49H87.58v-.3c.79,0,1-.11,1-.4V43.55c0-.29-.18-.37-1-.4v-.3h2.77v.3c-.84,0-.9.09-.9.4v2.53Z"/><path class="cls-1" d="M93.86,49.06H91.14v-.34h0c.4-.05.6-.12.64-.22s0-.16-.13-.34L90.1,46l-.62.6v1.76c0,.27,0,.34.77.37h0v.37H87.55v-.37h0c.8,0,.94-.12.94-.37V43.55c0-.25-.14-.34-.94-.37h0v-.37h2.83v.37h0c-.83,0-.87.1-.87.37V46l2-2c.29-.29.4-.47.36-.59s-.24-.19-.61-.23h0v-.34h2.45v.34h0c-.73.11-1,.3-1.68,1l-1.24,1.2,2,2.67a1.38,1.38,0,0,0,1.16.68h0ZM91.21,49h2.58v-.21a1.45,1.45,0,0,1-1.17-.7l-2-2.73,0,0,1.26-1.22c.72-.69,1-.9,1.69-1v-.21H91.29v.21c.39,0,.59.13.64.27s-.06.35-.38.67l-2.14,2.14V43.55c0-.35.12-.41.9-.43v-.24H87.62v.24c.72,0,1,.1,1,.43v4.77c0,.33-.25.4-1,.43V49h2.59v-.24c-.69,0-.8-.09-.8-.43V46.53h0l.69-.67,1.63,2.26c.12.17.19.3.14.41s-.25.2-.67.26Z"/><path class="cls-1" d="M93.87,46a3,3,0,0,1,2.95-3.25,2.94,2.94,0,0,1,2.94,3.22,3,3,0,0,1-2.94,3.25A2.94,2.94,0,0,1,93.87,46m4.88,0c0-2-.83-2.89-2-2.89s-1.89.89-1.89,2.89.83,2.9,2,2.9,1.89-.88,1.89-2.9"/><path class="cls-1" d="M96.82,49.21a3,3,0,0,1-3-3.26,3,3,0,0,1,3-3.29,3,3,0,0,1,3,3.26,3,3,0,0,1-3,3.29m0-6.47A3,3,0,0,0,93.91,46a2.9,2.9,0,0,0,2.91,3.19,3,3,0,0,0,2.91-3.22,2.92,2.92,0,0,0-2.91-3.18m0,6.13c-1.28,0-2-1.07-2-2.93S95.54,43,96.78,43s2,1.07,2,2.94-.69,2.93-1.93,2.93m-.08-5.8c-1.2,0-1.86,1-1.86,2.87s.71,2.86,1.94,2.86,1.86-1,1.86-2.86-.71-2.87-1.94-2.87"/><path class="cls-1" d="M101.55,43.83h0v3.71c0,.86.11,1.08,1,1.21V49h-2.37v-.27c.84-.14,1-.35,1-1.21V43.79c0-.35-.23-.62-1-.64v-.3h1.75l3.5,4.79h0V44.32c0-.85-.19-1.07-1.08-1.2v-.27h2.38v.27c-.84.15-.92.35-.92,1.2v4.85h-.37Z"/><path class="cls-1" d="M105.84,49.21h-.42v0l-3.83-5.27v3.62c0,.83.09,1,1,1.17h0v.34h-2.45v-.34h0c.81-.13,1-.32,1-1.17V43.79c0-.39-.31-.59-.95-.61h0v-.37H102v0l3.44,4.71V44.32c0-.84-.18-1-1.06-1.16h0v-.34h2.45v.34h0c-.82.14-.89.32-.89,1.16Zm-.38-.07h.31V44.32c0-.85.09-1.07.92-1.23v-.2h-2.31v.2c.88.13,1.09.37,1.09,1.23v3.36h-.06l0,0-3.47-4.77h-1.7v.22c.66,0,1,.25,1,.68v3.75c0,.88-.17,1.1-1,1.24V49h2.3v-.2c-.9-.14-1-.38-1-1.24V43.79h.08Z"/><path class="cls-1" d="M107,46a3.16,3.16,0,0,1,3.2-3.25,4.13,4.13,0,0,1,1.5.3l.26-.3h.29v1.81h-.29A1.93,1.93,0,0,0,110.07,43c-1,0-2.1.93-2.1,2.89s1.15,2.9,2.17,2.9a2,2,0,0,0,1.26-.32V46.77c0-.29-.19-.38-1-.4v-.3h2.49v.3c-.57,0-.62.09-.62.4v1.92a5.14,5.14,0,0,1-2.07.48A3.07,3.07,0,0,1,107,46"/><path class="cls-1" d="M110.22,49.2A3.1,3.1,0,0,1,106.93,46a3.19,3.19,0,0,1,3.23-3.29,4.14,4.14,0,0,1,1.49.3l.25-.3h.34v1.88h-.34v0a1.91,1.91,0,0,0-1.82-1.45c-1,0-2.06.9-2.06,2.86s1.07,2.87,2.13,2.87a2,2,0,0,0,1.22-.3V46.77c0-.25-.13-.34-.94-.37h0V46h2.55v.37h0c-.56,0-.58.09-.58.37v1.94h0a5.18,5.18,0,0,1-2.09.48m-.06-6.46A3.12,3.12,0,0,0,107,46a3,3,0,0,0,3.22,3.18,5,5,0,0,0,2-.46v-1.9c0-.34.09-.41.62-.44V46.1h-2.41v.23c.72,0,1,.1,1,.44v1.76h0a2.06,2.06,0,0,1-1.28.33c-1.09,0-2.2-1-2.2-2.94S109,43,110.07,43A2,2,0,0,1,112,44.47h.22V42.74h-.24l-.26.3h0a4.06,4.06,0,0,0-1.49-.29"/><path class="cls-1" d="M60.83,54.65l-.43-.59a21.55,21.55,0,0,0,5.53-.56l.46.46a14.3,14.3,0,0,1-2.58.49v.68h2.92v.59H63.81v1.46h1.86v3.48h-.62v-.42H61.94v.42h-.62V57.41a6.35,6.35,0,0,1-1,.42l-.46-.51a5.23,5.23,0,0,0,2.64-1.6H60.3v-.59h2.89v-.61Zm.91,2.53h1.45V55.86h0a4.25,4.25,0,0,1-1.44,1.3Zm.2,1.18h3.11v-.59H61.94Zm0,.59v.69h3.11V59ZM67,57.24l-.41.48a6,6,0,0,0-2.75-1.49l.45-.49A6.48,6.48,0,0,1,67,57.24Z"/><path class="cls-1" d="M67.51,55.92l.37-.45a2.43,2.43,0,0,1,1.33,1.06l-.46.41A2.42,2.42,0,0,0,67.51,55.92Zm5.73-.1h1.24v.59H73.24a3.24,3.24,0,0,0,.74.81,2.62,2.62,0,0,0,.9.51l-.42.48a3.27,3.27,0,0,1-.95-.63V59H71v.49c0,.19.08.28.22.28h2.13a.29.29,0,0,0,.22-.09,1.85,1.85,0,0,0,.14-.67h.59a2.24,2.24,0,0,1-.22,1.06.67.67,0,0,1-.59.29H71.08a.66.66,0,0,1-.49-.18.71.71,0,0,1-.16-.48V57.64a6,6,0,0,1-.78.52l-.34-.42a6.69,6.69,0,0,1-1.15,2.95l-.58-.33a7.27,7.27,0,0,0,1.21-2.89l.56.18a2.91,2.91,0,0,0,1.34-1.24H69.42v-.59h1.23V55h-.92v-.6h.92v-.91h.62v.91h1.35v-.91h.62v.91h.92V55h-.92Zm-5.45-1.64.47-.41a2.47,2.47,0,0,1,1.28,1l-.45.42A2.43,2.43,0,0,0,67.79,54.18Zm3.13,2.93h2.15a5.22,5.22,0,0,1-.48-.7H71.34A2.18,2.18,0,0,1,70.92,57.11Zm2,.59H71v.74h1.85Zm-.27-1.88V55H71.27v.84Z"/><path class="cls-1" d="M76.82,55.73v5H76.2V56.69h0a3.37,3.37,0,0,1-.66.76L75,57.08a4.32,4.32,0,0,0,1.1-1.27,11.65,11.65,0,0,0,1-2.41l.54.26L77.12,55Zm5.58,3.93v.59H77.11v-.59h1.4l.3-2.83H77.64v-.59h1.22L79,54.57H77.5V54h4.57v.59H79.7l-.18,1.67h2.09l-.26,3.42Zm-3.23,0h1.52l.24-2.83H79.47Z"/><path class="cls-1" d="M84.26,56v4.59h-.62v-4.3h0c-.09.13-.26.35-.51.65l-.62-.35a7.23,7.23,0,0,0,1.93-3.36l.55.24-.24.73c-.07.18-.14.37-.22.55l-.26.54v.54a6.16,6.16,0,0,0,1.66-1.24,4,4,0,0,0,1-1.52l.56.23-.08.2a6.13,6.13,0,0,0,2.77,2.29l-.48.49a6,6,0,0,1-1.28-.8v.33H85.87v-.34a8.76,8.76,0,0,1-1.28.9Zm4.54,4.45h-.73l-.21-.61.7,0c.12,0,.17-.06.17-.2v-1H88.1v1.09h-.62V58.69h-.63v1.23h-.61V58.69H85.6v1.9H85V56.47h4.37v3.36a.67.67,0,0,1-.15.44A.49.49,0,0,1,88.8,60.45ZM85.6,58.1h.64v-1H85.6Zm.54-2.88h2a10.45,10.45,0,0,1-1-1.15A5.51,5.51,0,0,1,86.14,55.22Zm.71,2.88h.63v-1h-.63Zm1.88-1H88.1v1h.63Z"/><path class="cls-1" d="M93.12,59.44l.43.38a7.35,7.35,0,0,1-2.75.83l-.41-.55A7.23,7.23,0,0,0,93.12,59.44Zm-2.44-4v-.59h3V54.3H91.34v-.6H96.7v.6H94.3v.56h3v.59Zm.9,3.95V55.78h4.87V59.4Zm.61-2.62h3.64v-.41H92.19Zm0,1h3.64v-.47H92.19Zm3.64,1v-.49H92.19v.49ZM94.38,60l.3-.52a8,8,0,0,1,2.94.63l-.38.53A6.33,6.33,0,0,0,94.38,60Z"/><path class="cls-1" d="M100.52,60.68l-.47-.61h1.15c.18,0,.27-.09.27-.29v-.45H98.14v-.56h3.33v-.31l.88-.29v0H99.43v-.56h4.38v.53a11,11,0,0,1-1.7.64h3.12v.56h-3.15V60c0,.32-.1.51-.3.58A4.49,4.49,0,0,1,100.52,60.68Zm2.1-6.32V53.8h2.1l-.3,2.94h.52V58h-.58v-.64H99V58h-.61V56.74h.55l-.28-2.69a3.28,3.28,0,0,0,1.65-.64l.33.46a3.26,3.26,0,0,1-1.35.61l0,.25h1.26l.15-.07.23-.12.15-.09.12-.08a3.88,3.88,0,0,0-.72-.19l.25-.48,1,.3a3.79,3.79,0,0,0,.5-.6l.42.34a3.14,3.14,0,0,1-.42.51,3.07,3.07,0,0,1,.54.45l-.35.47a2.36,2.36,0,0,0-.63-.53c-.5.32-.76.49-.8.5l-.38-.31v.46H99.34l.06.42h1.18v.56H99.45l0,.47h2.85l-.16-.17L102,56.4l-.28-.2a6.13,6.13,0,0,1-.91.52l-.4-.34a3.71,3.71,0,0,0,.79-.48,5.21,5.21,0,0,0-.71-.24l.36-.41a2.25,2.25,0,0,1,.83.29l.47-.46.39.33c0,.05-.11.12-.19.23a1.26,1.26,0,0,1-.19.2,4.41,4.41,0,0,1,.67.54l-.34.36h1.34l.07-.51h-1.1v-.56h1.15l.06-.42h-1.21V54.7H104l0-.34Z"/><path class="cls-1" d="M106.83,58.25v2.5h-.62V53.82h2.1v.52l-.64,1.77a4.09,4.09,0,0,1,.58.92,1.92,1.92,0,0,1,.11.61,1.29,1.29,0,0,1-.24.8.79.79,0,0,1-.67.32,2.15,2.15,0,0,1-.56-.09l0-.42Zm.83-3.84h-.83V58a1.85,1.85,0,0,0,.59.18c.23,0,.34-.18.34-.55a1.37,1.37,0,0,0-.45-1l-.34-.34Zm1.89,3.25h-1v-.59h4v.59h-1.12v1.89a.21.21,0,0,0,0,.15s.09,0,.19,0h.45c.12,0,.21-.1.27-.31a6.67,6.67,0,0,0,.14-.86l.59.29a2.82,2.82,0,0,1-.45,1.27.8.8,0,0,1-.56.2h-.65c-.43,0-.64-.23-.64-.68v-2h-.58c0,.32-.07.59-.11.83a5.14,5.14,0,0,1-.12.56,2.57,2.57,0,0,1-.22.44,3.39,3.39,0,0,1-.4.48,2.84,2.84,0,0,1-.62.45,4.89,4.89,0,0,1-.88.35l-.4-.53a3,3,0,0,0,1.61-.86A2.47,2.47,0,0,0,109.55,57.66Zm3.11-3.35v1.31H112v-.71H109v.75h-.62V54.31h1.88a1.8,1.8,0,0,0-1-.5l.38-.45a2.05,2.05,0,0,1,1.28.84l-.15.1h1.9Zm-3.69,2V55.7h3v.59Z"/></svg>